<svg width="16" height="16" viewBox="0 0 16 16" fill="none" xmlns="http://www.w3.org/2000/svg">
<path d="M2 4H3.33333H14" stroke="#d9d9d9" stroke-width="1.5" stroke-linecap="round" stroke-linejoin="round"/>
<path d="M5.33331 4.00002V2.66669C5.33331 2.31307 5.47379 1.97393 5.72384 1.72388C5.97389 1.47383 6.31302 1.33335 6.66665 1.33335H9.33331C9.68694 1.33335 10.0261 1.47383 10.2761 1.72388C10.5262 1.97393 10.6666 2.31307 10.6666 2.66669V4.00002M12.6666 4.00002V13.3334C12.6666 13.687 12.5262 14.0261 12.2761 14.2762C12.0261 14.5262 11.6869 14.6667 11.3333 14.6667H4.66665C4.31302 14.6667 3.97389 14.5262 3.72384 14.2762C3.47379 14.0261 3.33331 13.687 3.33331 13.3334V4.00002H12.6666Z" stroke="#d9d9d9" stroke-width="1.5" stroke-linecap="round" stroke-linejoin="round"/>
<path d="M6.66669 7.33331V11.3333" stroke="#d9d9d9" stroke-width="1.5" stroke-linecap="round" stroke-linejoin="round"/>
<path d="M9.33331 7.33331V11.3333" stroke="#d9d9d9" stroke-width="1.5" stroke-linecap="round" stroke-linejoin="round"/>
</svg>
