<svg width="16" height="16" viewBox="0 0 16 16" fill="none" xmlns="http://www.w3.org/2000/svg">
<path d="M4 6V2H12V6" stroke="#d9d9d9" stroke-width="1.5" stroke-linecap="round" stroke-linejoin="round"/>
<path d="M4 12H2.66667C2.31304 12 1.97391 11.8595 1.72386 11.6095C1.47381 11.3594 1.33333 11.0203 1.33333 10.6667V7.33333C1.33333 6.97971 1.47381 6.64057 1.72386 6.39052C1.97391 6.14048 2.31304 6 2.66667 6H13.3333C13.687 6 14.0261 6.14048 14.2761 6.39052C14.5262 6.64057 14.6667 6.97971 14.6667 7.33333V10.6667C14.6667 11.0203 14.5262 11.3594 14.2761 11.6095C14.0261 11.8595 13.687 12 13.3333 12H12" stroke="#d9d9d9" stroke-width="1.5" stroke-linecap="round" stroke-linejoin="round"/>
<path d="M12 9.33331H4V14H12V9.33331Z" stroke="#d9d9d9" stroke-width="1.5" stroke-linecap="round" stroke-linejoin="round"/>
</svg>
