<svg width="16" height="16" viewBox="0 0 16 16" fill="none" xmlns="http://www.w3.org/2000/svg">
<path d="M14 2.66669V6.66669H10" stroke="#d9d9d9" stroke-width="1.5" stroke-linecap="round" stroke-linejoin="round"/>
<path d="M2 13.3333V9.33331H6" stroke="#d9d9d9" stroke-width="1.5" stroke-linecap="round" stroke-linejoin="round"/>
<path d="M3.10667 6.00002C3.38314 5.16904 3.86465 4.42104 4.50667 3.82669C5.14869 3.23234 5.93054 2.81084 6.78 2.60269C7.62946 2.39454 8.51794 2.40647 9.36133 2.63735C10.2047 2.86823 10.9747 3.31068 11.6 3.92002L14 6.66669M2 9.33335L4.4 12.08C5.02534 12.6894 5.79535 13.1318 6.63867 13.3627C7.48199 13.5936 8.37047 13.6055 9.21993 13.3974C10.0694 13.1892 10.8512 12.7677 11.4933 12.1734C12.1353 11.579 12.6168 10.831 12.8933 10" stroke="#d9d9d9" stroke-width="1.5" stroke-linecap="round" stroke-linejoin="round"/>
</svg>
